<svg width="24" height="24" viewBox="0 0 24 24" fill="none" xmlns="http://www.w3.org/2000/svg">
<path d="M11.1562 7.21875C11.1562 6.76172 11.5078 6.375 12 6.375C12.457 6.375 12.8438 6.76172 12.8438 7.21875V11.5781L15.832 13.5469C16.2188 13.8281 16.3242 14.3555 16.043 14.7422C15.7969 15.1289 15.2695 15.2344 14.8828 14.9531L11.5078 12.7031C11.2969 12.5625 11.1562 12.2812 11.1562 12V7.21875ZM12 3C16.957 3 21 7.04297 21 12C21 16.9922 16.957 21 12 21C7.00781 21 3 16.9922 3 12C3 7.04297 7.00781 3 12 3ZM4.6875 12C4.6875 16.043 7.95703 19.3125 12 19.3125C16.0078 19.3125 19.3125 16.043 19.3125 12C19.3125 7.99219 16.0078 4.6875 12 4.6875C7.95703 4.6875 4.6875 7.99219 4.6875 12Z" fill="#808080"/>
</svg>
