<svg width="32" height="32" viewBox="0 0 32 32" fill="none" xmlns="http://www.w3.org/2000/svg">
<path d="M19.75 13.0176C19.75 15.127 18.0625 16.7676 16 16.7676C13.8906 16.7676 12.25 15.127 12.25 13.0176C12.25 10.9551 13.8906 9.26758 16 9.26758C18.0625 9.26758 19.75 10.9551 19.75 13.0176ZM16 11.5176C15.1562 11.5176 14.5 12.2207 14.5 13.0176C14.5 13.8613 15.1562 14.5176 16 14.5176C16.7969 14.5176 17.5 13.8613 17.5 13.0176C17.5 12.2207 16.7969 11.5176 16 11.5176ZM25 13.0176C25 17.1426 19.5156 24.4082 17.0781 27.4551C16.5156 28.1582 15.4375 28.1582 14.875 27.4551C12.4375 24.4082 7 17.1426 7 13.0176C7 8.04883 10.9844 4.01758 16 4.01758C20.9688 4.01758 25 8.04883 25 13.0176ZM16 6.26758C12.25 6.26758 9.25 9.31445 9.25 13.0176C9.25 13.627 9.4375 14.5176 9.95312 15.7363C10.4219 16.8613 11.125 18.1738 11.9219 19.4863C13.2812 21.6426 14.8281 23.7051 16 25.2051C17.125 23.7051 18.6719 21.6426 20.0312 19.4863C20.8281 18.1738 21.5312 16.8613 22 15.7363C22.5156 14.5176 22.75 13.627 22.75 13.0176C22.75 9.31445 19.7031 6.26758 16 6.26758Z" fill="#212121"/>
</svg>
