<svg width="32" height="32" viewBox="0 0 32 32" fill="none" xmlns="http://www.w3.org/2000/svg">
<path d="M14.875 9.625C14.875 9.01562 15.3438 8.5 16 8.5C16.6094 8.5 17.125 9.01562 17.125 9.625V15.4375L21.1094 18.0625C21.625 18.4375 21.7656 19.1406 21.3906 19.6562C21.0625 20.1719 20.3594 20.3125 19.8438 19.9375L15.3438 16.9375C15.0625 16.75 14.875 16.375 14.875 16V9.625ZM16 4C22.6094 4 28 9.39062 28 16C28 22.6562 22.6094 28 16 28C9.34375 28 4 22.6562 4 16C4 9.39062 9.34375 4 16 4ZM6.25 16C6.25 21.3906 10.6094 25.75 16 25.75C21.3438 25.75 25.75 21.3906 25.75 16C25.75 10.6562 21.3438 6.25 16 6.25C10.6094 6.25 6.25 10.6562 6.25 16Z" fill="#212121"/>
</svg>
