<svg width="24" height="24" viewBox="0 0 24 24" fill="none" xmlns="http://www.w3.org/2000/svg">
<path d="M14.3379 11.0508C14.373 11.4023 14.4434 11.7188 14.4434 12.1758C14.4434 16.043 11.8418 18.75 7.93945 18.75C4.21289 18.75 1.18945 15.7617 1.18945 12C1.18945 8.27344 4.21289 5.25 7.93945 5.25C9.76758 5.25 11.2793 5.91797 12.4746 7.04297L10.6465 8.80078C10.1543 8.30859 9.27539 7.74609 7.93945 7.74609C5.6543 7.74609 3.75586 9.64453 3.75586 12C3.75586 14.3906 5.6543 16.2891 7.93945 16.2891C10.6113 16.2891 11.6309 14.3555 11.7715 13.3711H7.93945V11.0508H14.3379ZM20.8418 11.2617V9.32812H18.873V11.2617H16.9043V13.2305H18.873V15.1992H20.8418V13.2305H22.8105V11.2617H20.8418Z" fill="#212121"/>
</svg>
