<svg width="24" height="24" viewBox="0 0 24 24" fill="none" xmlns="http://www.w3.org/2000/svg">
<path fill-rule="evenodd" clip-rule="evenodd" d="M8.50549 17.7905C9.31266 17.8726 10.3784 17.875 12 17.875C13.6216 17.875 14.6873 17.8726 15.4945 17.7905C16.2683 17.7118 16.5798 17.5767 16.7639 17.4537C17.0369 17.2713 17.2713 17.0369 17.4537 16.7639C17.5767 16.5798 17.7118 16.2683 17.7905 15.4945C17.8726 14.6873 17.875 13.6216 17.875 12C17.875 10.3784 17.8726 9.31266 17.7905 8.50549C17.7118 7.73174 17.5767 7.42018 17.4537 7.23607C17.2713 6.9631 17.0369 6.72872 16.7639 6.54633C16.5798 6.42331 16.2683 6.28824 15.4945 6.20953C14.6873 6.12742 13.6216 6.125 12 6.125C10.3784 6.125 9.31266 6.12742 8.50549 6.20953C7.73174 6.28824 7.42018 6.42331 7.23607 6.54633C6.9631 6.72872 6.72872 6.9631 6.54633 7.23607C6.42331 7.42018 6.28824 7.73174 6.20953 8.50549C6.12742 9.31266 6.125 10.3784 6.125 12C6.125 13.6216 6.12742 14.6873 6.20953 15.4945C6.28824 16.2683 6.42331 16.5798 6.54633 16.7639C6.72872 17.0369 6.9631 17.2713 7.23607 17.4537C7.42018 17.5767 7.73174 17.7118 8.50549 17.7905ZM4.88339 6.12493C4.125 7.25994 4.125 8.83996 4.125 12C4.125 15.16 4.125 16.7401 4.88339 17.8751C5.2117 18.3664 5.63358 18.7883 6.12493 19.1166C7.25994 19.875 8.83996 19.875 12 19.875C15.16 19.875 16.7401 19.875 17.8751 19.1166C18.3664 18.7883 18.7883 18.3664 19.1166 17.8751C19.875 16.7401 19.875 15.16 19.875 12C19.875 8.83996 19.875 7.25994 19.1166 6.12493C18.7883 5.63358 18.3664 5.2117 17.8751 4.88339C16.7401 4.125 15.16 4.125 12 4.125C8.83996 4.125 7.25994 4.125 6.12493 4.88339C5.63358 5.2117 5.2117 5.63358 4.88339 6.12493Z" fill="#212121"/>
<path fill-rule="evenodd" clip-rule="evenodd" d="M18.1348 16.623C17.8887 17.3262 17.3262 17.8535 16.6582 18.1348C15.7609 18.4937 13.8459 18.4709 12.6015 18.4561C12.3832 18.4535 12.1855 18.4512 12.0176 18.4512C11.8433 18.4512 11.6396 18.4536 11.4158 18.4562C10.1505 18.471 8.2433 18.4933 7.37695 18.1348C6.67383 17.8535 6.14648 17.3262 5.86523 16.623C5.50675 15.7567 5.52904 13.8495 5.54383 12.5842C5.54645 12.3604 5.54883 12.1567 5.54883 11.9824C5.54883 11.8145 5.54648 11.6168 5.54388 11.3985C5.52909 10.1541 5.50633 8.23906 5.86523 7.3418C6.14648 6.67383 6.67383 6.14648 7.37695 5.86523C8.2433 5.50675 10.1505 5.52904 11.4158 5.54383C11.6396 5.54645 11.8433 5.54883 12.0176 5.54883C12.1855 5.54883 12.3832 5.54648 12.6015 5.54388C13.8459 5.52909 15.7609 5.50633 16.6582 5.86523C17.3262 6.11133 17.8535 6.67383 18.1348 7.3418C18.4937 8.23906 18.4709 10.1541 18.4561 11.3985C18.4535 11.6168 18.4512 11.8145 18.4512 11.9824C18.4512 12.1567 18.4536 12.3604 18.4562 12.5842C18.471 13.8495 18.4933 15.7567 18.1348 16.623ZM7.97461 11.9824C7.97461 9.76758 9.76758 7.93945 12.0176 7.93945C14.2324 7.93945 16.0605 9.76758 16.0605 11.9824C16.0605 14.2324 14.2324 16.0254 12.0176 16.0254C9.76758 16.0254 7.97461 14.2324 7.97461 11.9824ZM16.2012 8.74805C16.7285 8.74805 17.1504 8.32617 17.1504 7.79883C17.1504 7.27148 16.7285 6.84961 16.2012 6.84961C15.6738 6.84961 15.252 7.27148 15.252 7.79883C15.252 8.32617 15.6738 8.74805 16.2012 8.74805Z" fill="#212121"/>
<path d="M12.0176 14.6191C10.5762 14.6191 9.38086 13.459 9.38086 11.9824C9.38086 10.541 10.541 9.38086 12.0176 9.38086C13.459 9.38086 14.6191 10.541 14.6191 11.9824C14.6191 13.459 13.459 14.6191 12.0176 14.6191Z" fill="#212121"/>
<path fill-rule="evenodd" clip-rule="evenodd" d="M19.8223 8.74805C19.752 7.48242 19.4707 6.35742 18.5566 5.44336C17.6426 4.5293 16.5176 4.24805 15.252 4.17773C13.9512 4.10742 10.0488 4.10742 8.74805 4.17773C7.48242 4.24805 6.39258 4.5293 5.44336 5.44336C4.5293 6.35742 4.24805 7.48242 4.17773 8.74805C4.10742 10.0488 4.10742 13.9512 4.17773 15.252C4.24805 16.5176 4.5293 17.6074 5.44336 18.5566C6.39258 19.4707 7.48242 19.752 8.74805 19.8223C10.0488 19.8926 13.9512 19.8926 15.252 19.8223C16.5176 19.752 17.6426 19.4707 18.5566 18.5566C19.4707 17.6074 19.752 16.5176 19.8223 15.252C19.8926 13.9512 19.8926 10.0488 19.8223 8.74805ZM18.1348 16.623C17.8887 17.3262 17.3262 17.8535 16.6582 18.1348C15.7609 18.4937 13.8459 18.4709 12.6015 18.4561C12.3832 18.4535 12.1855 18.4512 12.0176 18.4512C11.8433 18.4512 11.6396 18.4536 11.4158 18.4562C10.1505 18.471 8.2433 18.4933 7.37695 18.1348C6.67383 17.8535 6.14648 17.3262 5.86523 16.623C5.50675 15.7567 5.52904 13.8495 5.54383 12.5842C5.54645 12.3604 5.54883 12.1567 5.54883 11.9824C5.54883 11.8145 5.54648 11.6168 5.54388 11.3985C5.52909 10.1541 5.50633 8.23906 5.86523 7.3418C6.14648 6.67383 6.67383 6.14648 7.37695 5.86523C8.2433 5.50675 10.1505 5.52904 11.4158 5.54383C11.6396 5.54645 11.8433 5.54883 12.0176 5.54883C12.1855 5.54883 12.3832 5.54648 12.6015 5.54388C13.8459 5.52909 15.7609 5.50633 16.6582 5.86523C17.3262 6.11133 17.8535 6.67383 18.1348 7.3418C18.4937 8.23906 18.4709 10.1541 18.4561 11.3985C18.4535 11.6168 18.4512 11.8145 18.4512 11.9824C18.4512 12.1567 18.4536 12.3604 18.4562 12.5842C18.471 13.8495 18.4933 15.7567 18.1348 16.623Z" fill="#212121"/>
</svg>
