<svg width="32" height="32" viewBox="0 0 32 32" fill="none" xmlns="http://www.w3.org/2000/svg">
<path d="M26.5261 19.0342L21.9323 17.0654C20.9011 16.5967 19.7292 16.9248 19.0261 17.7686L17.7604 19.3154C15.6511 18.0967 13.9167 16.3623 12.6979 14.2998L14.2917 13.0342C15.0886 12.3311 15.4167 11.1592 14.9948 10.1748L12.9792 5.48732C12.5104 4.40919 11.3386 3.79982 10.1667 4.08107L5.90106 5.06544C4.77606 5.29982 4.02606 6.28419 4.02606 7.45607C4.02606 18.7998 13.2136 27.9873 24.5573 27.9873C25.7292 27.9873 26.7136 27.2373 26.9011 26.1123L27.8854 21.8467C28.2136 20.6748 27.6042 19.5029 26.5261 19.0342ZM25.7292 21.3311L24.7448 25.5967C24.7448 25.6436 24.6511 25.7373 24.5573 25.7373C14.4792 25.7373 6.22919 17.5342 6.22919 7.45607C6.22919 7.36232 6.32294 7.26857 6.41669 7.26857L10.6823 6.28419L10.7292 6.23732C10.8229 6.23732 10.8698 6.33107 10.9167 6.37794L12.8854 10.9717C12.9323 11.0654 12.9323 11.1592 12.8386 11.2061L10.5417 13.0811C10.1667 13.4092 10.0261 13.9717 10.2604 14.4404C11.8073 17.5811 14.3854 20.1592 17.5261 21.7061C17.9948 21.9404 18.6042 21.8467 18.9323 21.4248L20.8073 19.1279C20.8542 19.0811 20.9479 19.0342 21.0417 19.0811L25.6354 21.0498C25.7292 21.1436 25.7761 21.2373 25.7292 21.3311Z" fill="#212121"/>
</svg>
