<svg width="24" height="24" viewBox="0 0 24 24" fill="none" xmlns="http://www.w3.org/2000/svg">
<path d="M19.1543 8.32617C19.1543 8.50195 19.1543 8.64258 19.1543 8.81836C19.1543 13.7051 15.4629 19.2949 8.67773 19.2949C6.56836 19.2949 4.63477 18.6973 3.01758 17.6426C3.29883 17.6777 3.58008 17.7129 3.89648 17.7129C5.61914 17.7129 7.20117 17.1152 8.4668 16.1309C6.84961 16.0957 5.47852 15.041 5.02148 13.5645C5.26758 13.5996 5.47852 13.6348 5.72461 13.6348C6.04102 13.6348 6.39258 13.5645 6.67383 13.4941C4.98633 13.1426 3.7207 11.666 3.7207 9.87305V9.83789C4.21289 10.1191 4.81055 10.2598 5.4082 10.2949C4.38867 9.62695 3.75586 8.50195 3.75586 7.23633C3.75586 6.5332 3.93164 5.90039 4.24805 5.37305C6.07617 7.58789 8.81836 9.06445 11.877 9.24023C11.8066 8.95898 11.7715 8.67773 11.7715 8.39648C11.7715 6.35742 13.4238 4.70508 15.4629 4.70508C16.5176 4.70508 17.4668 5.12695 18.1699 5.86523C18.9785 5.68945 19.7871 5.37305 20.4902 4.95117C20.209 5.83008 19.6465 6.5332 18.873 6.99023C19.6113 6.91992 20.3496 6.70898 20.9824 6.42773C20.4902 7.16602 19.8574 7.79883 19.1543 8.32617Z" fill="white"/>
</svg>
