<svg width="112" height="48" viewBox="0 0 112 48" fill="none" xmlns="http://www.w3.org/2000/svg">
<path d="M26.6079 31.3124L20.1743 24.5976C19.9985 24.3866 19.9282 24.1757 19.9282 23.9648C19.9282 23.789 19.9985 23.5781 20.1392 23.4023L26.5728 16.6874C26.8892 16.3359 27.4517 16.3359 27.7681 16.6523C28.1196 16.9687 28.1196 17.496 27.8032 17.8476L21.9321 23.9648L27.8384 30.1523C28.1548 30.4687 28.1548 31.0312 27.8032 31.3476C27.4868 31.664 26.9243 31.664 26.6079 31.3124Z" fill="#212121"/>
<rect x="1" y="1" width="46" height="46" stroke="#212121" stroke-width="2"/>
<rect width="48" height="48" transform="translate(64)" fill="#212121"/>
<path d="M85.3913 16.705L91.8249 23.4199C91.9655 23.5956 92.071 23.8066 92.071 24.0175C92.071 24.2284 91.9655 24.4394 91.8249 24.58L85.3913 31.2949C85.0749 31.6464 84.5124 31.6464 84.196 31.33C83.8444 31.0136 83.8444 30.4863 84.1608 30.1347L90.0671 23.9824L84.1608 17.8652C83.8444 17.5488 83.8444 16.9863 84.196 16.6699C84.5124 16.3534 85.0749 16.3534 85.3913 16.705Z" fill="white"/>
</svg>
