<svg width="20" height="20" viewBox="0 0 20 20" fill="none" xmlns="http://www.w3.org/2000/svg">
<path d="M12.1529 7.65064H16.8111C17.1041 7.65064 17.3678 7.85571 17.4556 8.14868C17.5728 8.41235 17.4556 8.73462 17.2213 8.9104L13.3834 11.8987L14.8775 16.5862C14.9947 16.8792 14.8775 17.2014 14.6138 17.3772C14.3795 17.553 14.0279 17.553 13.7935 17.3479L10.0142 14.4182L6.20564 17.3479C5.97127 17.553 5.6197 17.553 5.38533 17.3772C5.12166 17.2014 5.00447 16.8792 5.12166 16.5862L6.6158 11.8987L2.77791 8.9104C2.54353 8.73462 2.42634 8.41235 2.54353 8.14868C2.63142 7.85571 2.89509 7.65064 3.21736 7.65064H7.84627L9.34041 2.99243C9.4283 2.69946 9.69197 2.49438 10.0142 2.49438C10.3072 2.49438 10.5709 2.69946 10.6588 2.99243L12.1529 7.65064ZM10.0142 12.8069C10.1607 12.8069 10.3072 12.8655 10.4244 12.9827L12.856 14.8577L11.9185 11.8694C11.8306 11.5764 11.9185 11.2834 12.1529 11.1077L14.7603 9.05689H11.6549C11.3326 9.05689 11.0689 8.8811 10.981 8.58814L10.0142 5.54126V12.8069Z" fill="#212121"/>
</svg>
