<svg width="20" height="20" viewBox="0 0 20 20" fill="none" xmlns="http://www.w3.org/2000/svg">
<path d="M12.7389 6.91736L16.9284 7.53259C17.2799 7.59119 17.5729 7.82556 17.6901 8.17712C17.8073 8.49939 17.7194 8.88025 17.4557 9.11462L14.4088 12.1322L15.1413 16.4095C15.1999 16.7611 15.0534 17.1127 14.7604 17.3177C14.4674 17.5521 14.0866 17.5521 13.7643 17.4056L10.0143 15.3842L6.23501 17.4056C5.94204 17.5521 5.53189 17.5521 5.26821 17.3177C4.97524 17.1127 4.82876 16.7611 4.88735 16.4095L5.59048 12.1322L2.5436 9.11462C2.27993 8.88025 2.19204 8.49939 2.30923 8.17712C2.42642 7.82556 2.71939 7.59119 3.07095 7.53259L7.2897 6.91736L9.1647 3.02087C9.31118 2.69861 9.63345 2.49353 10.0143 2.49353C10.3659 2.49353 10.6881 2.69861 10.8346 3.02087L12.7389 6.91736Z" fill="#212121"/>
</svg>
