<svg width="24" height="24" viewBox="0 0 24 24" fill="none" xmlns="http://www.w3.org/2000/svg">
<path d="M14.8125 9.76318C14.8125 11.3452 13.5469 12.5757 12 12.5757C10.418 12.5757 9.1875 11.3452 9.1875 9.76318C9.1875 8.21631 10.418 6.95068 12 6.95068C13.5469 6.95068 14.8125 8.21631 14.8125 9.76318ZM12 8.63818C11.3672 8.63818 10.875 9.16553 10.875 9.76318C10.875 10.396 11.3672 10.8882 12 10.8882C12.5977 10.8882 13.125 10.396 13.125 9.76318C13.125 9.16553 12.5977 8.63818 12 8.63818ZM18.75 9.76318C18.75 12.8569 14.6367 18.3062 12.8086 20.5913C12.3867 21.1187 11.5781 21.1187 11.1562 20.5913C9.32812 18.3062 5.25 12.8569 5.25 9.76318C5.25 6.03662 8.23828 3.01318 12 3.01318C15.7266 3.01318 18.75 6.03662 18.75 9.76318ZM12 4.70068C9.1875 4.70068 6.9375 6.98584 6.9375 9.76318C6.9375 10.2202 7.07812 10.8882 7.46484 11.8022C7.81641 12.646 8.34375 13.6304 8.94141 14.6147C9.96094 16.2319 11.1211 17.7788 12 18.9038C12.8438 17.7788 14.0039 16.2319 15.0234 14.6147C15.6211 13.6304 16.1484 12.646 16.5 11.8022C16.8867 10.8882 17.0625 10.2202 17.0625 9.76318C17.0625 6.98584 14.7773 4.70068 12 4.70068Z" fill="white"/>
</svg>
