<svg width="20" height="20" viewBox="0 0 20 20" fill="none" xmlns="http://www.w3.org/2000/svg">
<path d="M11.9482 9.20898C11.9775 9.50195 12.0361 9.76562 12.0361 10.1465C12.0361 13.3691 9.86816 15.625 6.61621 15.625C3.51074 15.625 0.991211 13.1348 0.991211 10C0.991211 6.89453 3.51074 4.375 6.61621 4.375C8.13965 4.375 9.39941 4.93164 10.3955 5.86914L8.87207 7.33398C8.46191 6.92383 7.72949 6.45508 6.61621 6.45508C4.71191 6.45508 3.12988 8.03711 3.12988 10C3.12988 11.9922 4.71191 13.5742 6.61621 13.5742C8.84277 13.5742 9.69238 11.9629 9.80957 11.1426H6.61621V9.20898H11.9482ZM17.3682 9.38477V7.77344H15.7275V9.38477H14.0869V11.0254H15.7275V12.666H17.3682V11.0254H19.0088V9.38477H17.3682Z" fill="white"/>
</svg>
