<svg width="20" height="20" viewBox="0 0 20 20" fill="none" xmlns="http://www.w3.org/2000/svg">
<path fill-rule="evenodd" clip-rule="evenodd" d="M7.08791 14.8254C7.76055 14.8938 8.64863 14.8958 10 14.8958C11.3514 14.8958 12.2394 14.8938 12.9121 14.8254C13.5569 14.7598 13.8165 14.6472 13.9699 14.5447C14.1974 14.3927 14.3927 14.1974 14.5447 13.9699C14.6472 13.8165 14.7598 13.5569 14.8254 12.9121C14.8938 12.2394 14.8958 11.3514 14.8958 10C14.8958 8.64863 14.8938 7.76055 14.8254 7.08791C14.7598 6.44312 14.6472 6.18349 14.5447 6.03006C14.3927 5.80258 14.1974 5.60727 13.9699 5.45527C13.8165 5.35276 13.5569 5.2402 12.9121 5.17461C12.2394 5.10618 11.3514 5.10417 10 5.10417C8.64863 5.10417 7.76055 5.10618 7.08791 5.17461C6.44312 5.2402 6.18349 5.35276 6.03006 5.45527C5.80258 5.60727 5.60727 5.80258 5.45527 6.03006C5.35276 6.18349 5.2402 6.44312 5.17461 7.08791C5.10618 7.76055 5.10417 8.64863 5.10417 10C5.10417 11.3514 5.10618 12.2394 5.17461 12.9121C5.2402 13.5569 5.35276 13.8165 5.45527 13.9699C5.60727 14.1974 5.80258 14.3927 6.03006 14.5447C6.18349 14.6472 6.44312 14.7598 7.08791 14.8254ZM4.06949 5.10411C3.4375 6.04995 3.4375 7.36663 3.4375 10C3.4375 12.6334 3.4375 13.95 4.06949 14.8959C4.34308 15.3054 4.69465 15.6569 5.10411 15.9305C6.04995 16.5625 7.36663 16.5625 10 16.5625C12.6334 16.5625 13.95 16.5625 14.8959 15.9305C15.3054 15.6569 15.6569 15.3054 15.9305 14.8959C16.5625 13.95 16.5625 12.6334 16.5625 10C16.5625 7.36663 16.5625 6.04995 15.9305 5.10411C15.6569 4.69465 15.3054 4.34308 14.8959 4.06949C13.95 3.4375 12.6334 3.4375 10 3.4375C7.36663 3.4375 6.04995 3.4375 5.10411 4.06949C4.69465 4.34308 4.34308 4.69465 4.06949 5.10411Z" fill="white"/>
<path fill-rule="evenodd" clip-rule="evenodd" d="M15.1123 13.8525C14.9072 14.4385 14.4385 14.8779 13.8818 15.1123C13.1341 15.4114 11.5382 15.3924 10.5013 15.3801C10.3193 15.3779 10.1546 15.376 10.0146 15.376C9.86939 15.376 9.69966 15.378 9.51321 15.3801C8.45871 15.3925 6.86942 15.411 6.14746 15.1123C5.56152 14.8779 5.12207 14.4385 4.8877 13.8525C4.58895 13.1306 4.60753 11.5413 4.61986 10.4868C4.62204 10.3003 4.62402 10.1306 4.62402 9.98535C4.62402 9.84542 4.62207 9.68068 4.6199 9.49875C4.60758 8.46176 4.58861 6.86588 4.8877 6.11816C5.12207 5.56152 5.56152 5.12207 6.14746 4.8877C6.86942 4.58895 8.45871 4.60753 9.51321 4.61986C9.69966 4.62204 9.86939 4.62402 10.0146 4.62402C10.1546 4.62402 10.3193 4.62207 10.5013 4.6199C11.5382 4.60758 13.1341 4.58861 13.8818 4.8877C14.4385 5.09277 14.8779 5.56152 15.1123 6.11816C15.4114 6.86588 15.3924 8.46175 15.3801 9.49874C15.3779 9.68068 15.376 9.84542 15.376 9.98535C15.376 10.1306 15.378 10.3003 15.3801 10.4868C15.3925 11.5413 15.411 13.1306 15.1123 13.8525ZM6.64551 9.98535C6.64551 8.13965 8.13965 6.61621 10.0146 6.61621C11.8604 6.61621 13.3838 8.13965 13.3838 9.98535C13.3838 11.8604 11.8604 13.3545 10.0146 13.3545C8.13965 13.3545 6.64551 11.8604 6.64551 9.98535ZM13.501 7.29004C13.9404 7.29004 14.292 6.93848 14.292 6.49902C14.292 6.05957 13.9404 5.70801 13.501 5.70801C13.0615 5.70801 12.71 6.05957 12.71 6.49902C12.71 6.93848 13.0615 7.29004 13.501 7.29004Z" fill="white"/>
<path d="M10.0146 12.1826C8.81348 12.1826 7.81738 11.2158 7.81738 9.98535C7.81738 8.78418 8.78418 7.81738 10.0146 7.81738C11.2158 7.81738 12.1826 8.78418 12.1826 9.98535C12.1826 11.2158 11.2158 12.1826 10.0146 12.1826Z" fill="white"/>
<path fill-rule="evenodd" clip-rule="evenodd" d="M16.5186 7.29004C16.46 6.23535 16.2256 5.29785 15.4639 4.53613C14.7021 3.77441 13.7646 3.54004 12.71 3.48145C11.626 3.42285 8.37402 3.42285 7.29004 3.48145C6.23535 3.54004 5.32715 3.77441 4.53613 4.53613C3.77441 5.29785 3.54004 6.23535 3.48145 7.29004C3.42285 8.37402 3.42285 11.626 3.48145 12.71C3.54004 13.7646 3.77441 14.6729 4.53613 15.4639C5.32715 16.2256 6.23535 16.46 7.29004 16.5186C8.37402 16.5771 11.626 16.5771 12.71 16.5186C13.7646 16.46 14.7021 16.2256 15.4639 15.4639C16.2256 14.6729 16.46 13.7646 16.5186 12.71C16.5771 11.626 16.5771 8.37402 16.5186 7.29004ZM15.1123 13.8525C14.9072 14.4385 14.4385 14.8779 13.8818 15.1123C13.1341 15.4114 11.5382 15.3924 10.5013 15.3801C10.3193 15.3779 10.1546 15.376 10.0146 15.376C9.86939 15.376 9.69966 15.378 9.51321 15.3801C8.45871 15.3925 6.86942 15.411 6.14746 15.1123C5.56152 14.8779 5.12207 14.4385 4.8877 13.8525C4.58895 13.1306 4.60753 11.5413 4.61986 10.4868C4.62204 10.3003 4.62402 10.1306 4.62402 9.98535C4.62402 9.84542 4.62207 9.68068 4.6199 9.49875C4.60758 8.46176 4.58861 6.86588 4.8877 6.11816C5.12207 5.56152 5.56152 5.12207 6.14746 4.8877C6.86942 4.58895 8.45871 4.60753 9.51321 4.61986C9.69966 4.62204 9.86939 4.62402 10.0146 4.62402C10.1546 4.62402 10.3193 4.62207 10.5013 4.6199C11.5382 4.60758 13.1341 4.58861 13.8818 4.8877C14.4385 5.09277 14.8779 5.56152 15.1123 6.11816C15.4114 6.86588 15.3924 8.46175 15.3801 9.49874C15.3779 9.68068 15.376 9.84542 15.376 9.98535C15.376 10.1306 15.378 10.3003 15.3801 10.4868C15.3925 11.5413 15.411 13.1306 15.1123 13.8525Z" fill="white"/>
</svg>
