<svg width="24" height="24" viewBox="0 0 24 24" fill="none" xmlns="http://www.w3.org/2000/svg">
<path d="M19.8945 14.2759L16.4492 12.7993C15.6758 12.4478 14.7969 12.6939 14.2695 13.3267L13.3203 14.4868C11.7383 13.5728 10.4375 12.272 9.52344 10.7251L10.7188 9.77589C11.3164 9.24855 11.5625 8.36964 11.2461 7.63136L9.73438 4.11573C9.38281 3.30714 8.50391 2.85011 7.625 3.06105L4.42578 3.79933C3.58203 3.97511 3.01953 4.71339 3.01953 5.5923C3.01953 14.1001 9.91016 20.9907 18.418 20.9907C19.2969 20.9907 20.0352 20.4282 20.1758 19.5845L20.9141 16.3853C21.1602 15.5064 20.7031 14.6275 19.8945 14.2759ZM19.2969 15.9985L18.5586 19.1978C18.5586 19.2329 18.4883 19.3032 18.418 19.3032C10.8594 19.3032 4.67188 13.1509 4.67188 5.5923C4.67188 5.52198 4.74219 5.45167 4.8125 5.45167L8.01172 4.71339L8.04688 4.67823C8.11719 4.67823 8.15234 4.74855 8.1875 4.7837L9.66406 8.22901C9.69922 8.29933 9.69922 8.36964 9.62891 8.4048L7.90625 9.81105C7.625 10.0571 7.51953 10.479 7.69531 10.8306C8.85547 13.186 10.7891 15.1196 13.1445 16.2798C13.4961 16.4556 13.9531 16.3853 14.1992 16.0689L15.6055 14.3462C15.6406 14.311 15.7109 14.2759 15.7812 14.311L19.2266 15.7876C19.2969 15.8579 19.332 15.9282 19.2969 15.9985Z" fill="white"/>
</svg>
