<svg width="20" height="20" viewBox="0 0 20 20" fill="none" xmlns="http://www.w3.org/2000/svg">
<path d="M15.9619 6.93848C15.9619 7.08496 15.9619 7.20215 15.9619 7.34863C15.9619 11.4209 12.8857 16.0791 7.23145 16.0791C5.47363 16.0791 3.8623 15.5811 2.51465 14.7021C2.74902 14.7314 2.9834 14.7607 3.24707 14.7607C4.68262 14.7607 6.00098 14.2627 7.05566 13.4424C5.70801 13.4131 4.56543 12.5342 4.18457 11.3037C4.38965 11.333 4.56543 11.3623 4.77051 11.3623C5.03418 11.3623 5.32715 11.3037 5.56152 11.2451C4.15527 10.9521 3.10059 9.72168 3.10059 8.22754V8.19824C3.51074 8.43262 4.00879 8.5498 4.50684 8.5791C3.65723 8.02246 3.12988 7.08496 3.12988 6.03027C3.12988 5.44434 3.27637 4.91699 3.54004 4.47754C5.06348 6.32324 7.34863 7.55371 9.89746 7.7002C9.83887 7.46582 9.80957 7.23145 9.80957 6.99707C9.80957 5.29785 11.1865 3.9209 12.8857 3.9209C13.7646 3.9209 14.5557 4.27246 15.1416 4.8877C15.8154 4.74121 16.4893 4.47754 17.0752 4.12598C16.8408 4.8584 16.3721 5.44434 15.7275 5.8252C16.3428 5.7666 16.958 5.59082 17.4854 5.35645C17.0752 5.97168 16.5479 6.49902 15.9619 6.93848Z" fill="#212121"/>
</svg>
