<svg width="24" height="24" viewBox="0 0 24 24" fill="none" xmlns="http://www.w3.org/2000/svg">
<path d="M20.1562 12.0276H5.8125V5.45342C5.8125 5.13702 5.98828 4.85577 6.26953 4.7503C6.55078 4.64483 6.86719 4.71514 7.07812 4.92608L7.18359 5.03155C6.72656 5.98077 6.86719 7.14092 7.67578 7.94952L8.20312 8.47686C7.99219 8.79327 7.99219 9.21514 8.30859 9.53155C8.44922 9.67217 8.66016 9.74248 8.90625 9.74248C9.11719 9.74248 9.32812 9.67217 9.46875 9.49639L12.8438 6.12139C13.1953 5.80498 13.1953 5.27764 12.8438 4.96123C12.7031 4.78545 12.4922 4.71514 12.2812 4.71514C12.1406 4.71514 11.9648 4.7503 11.8242 4.85577L11.2969 4.32842C10.4883 3.51983 9.32812 3.3792 8.37891 3.83623L8.30859 3.80108C7.78125 3.23858 7.00781 2.92217 6.26953 3.02764C5.00391 3.20342 4.125 4.25811 4.125 5.45342V12.0276H3.84375C3.35156 12.0276 3 12.3792 3 12.8714C3 13.3284 3.35156 13.7151 3.84375 13.7151H4.125V16.5276C4.125 17.4769 4.51172 18.3909 5.25 19.0237V20.1839C5.25 20.6409 5.60156 20.9925 6.09375 20.9925C6.55078 20.9925 6.9375 20.6409 6.9375 20.1839V19.8323C7.11328 19.8675 7.28906 19.8675 7.5 19.9026H16.5C16.6758 19.8675 16.8516 19.8675 17.0625 19.8323V20.1839C17.0625 20.6409 17.4141 20.9925 17.9062 20.9925C18.3633 20.9925 18.75 20.6409 18.75 20.1487V19.0237C19.4531 18.3558 19.875 17.4769 19.875 16.5276V13.7151H20.1562C20.6133 13.7151 21 13.3284 21 12.8714C21 12.3792 20.6133 12.0276 20.1562 12.0276ZM10.1016 5.52373L10.5938 6.01592L9.36328 7.24639L8.87109 6.7542C8.51953 6.40264 8.51953 5.84014 8.87109 5.52373C9.22266 5.17217 9.75 5.17217 10.1016 5.52373ZM18.1875 16.4925C18.1875 17.4417 17.4141 18.18 16.5 18.18H7.5C6.55078 18.18 5.8125 17.4417 5.8125 16.4925V13.7151H18.1875V16.4925Z" fill="#212121"/>
</svg>
