<svg width="24" height="24" viewBox="0 0 24 24" fill="none" xmlns="http://www.w3.org/2000/svg">
<path d="M5.8125 8.625C5.8125 8.02734 6.30469 7.5 6.9375 7.5H10.3125C10.9102 7.5 11.4375 8.02734 11.4375 8.625V9.75H12.5625V8.625C12.5625 8.02734 13.0547 7.5 13.6875 7.5H17.0625C17.6602 7.5 18.1875 8.02734 18.1875 8.625V9.75H19.875V6.375C19.875 5.14453 18.8555 4.125 17.625 4.125H6.375C5.10938 4.125 4.125 5.14453 4.125 6.375V9.75H5.8125V8.625ZM18.75 10.875H5.25C3.98438 10.875 3 11.8945 3 13.125V19.0312C3 19.5234 3.35156 19.875 3.80859 19.875C4.23047 19.875 4.6875 19.5234 4.6875 19.0312V17.625H19.3125V19.0312C19.3125 19.5234 19.6641 19.875 20.1562 19.875C20.6133 19.875 21 19.5234 21 19.0312V13.125C21 11.8945 19.9805 10.875 18.75 10.875ZM19.3125 15.9375H4.6875V13.125C4.6875 12.8438 4.93359 12.5625 5.25 12.5625H18.75C19.0312 12.5625 19.3125 12.8438 19.3125 13.125V15.9375Z" fill="#212121"/>
</svg>
