<svg width="24" height="24" viewBox="0 0 24 24" fill="none" xmlns="http://www.w3.org/2000/svg">
<path d="M18.1875 10.0312V7.00781L13.1602 12L18.1875 17.0273V13.9688C18.1875 13.5117 18.5391 13.125 19.0312 13.125C19.4883 13.125 19.875 13.5117 19.875 13.9688V19.0312C19.875 19.1719 19.8398 19.2773 19.8047 19.3828C19.6992 19.5938 19.5586 19.7344 19.3477 19.8398C19.2422 19.875 19.1367 19.875 19.0312 19.875H13.9688C13.4766 19.875 13.125 19.5234 13.125 19.0312C13.125 18.5742 13.4766 18.1875 13.9688 18.1875H16.9922L12 13.1953L6.97266 18.1875H10.0312C10.4883 18.1875 10.875 18.5742 10.875 19.0312C10.875 19.5234 10.4883 19.875 10.0312 19.875H4.96875C4.82812 19.875 4.72266 19.875 4.61719 19.8398C4.40625 19.7344 4.26562 19.5938 4.16016 19.3828C4.125 19.2773 4.125 19.1719 4.125 19.0312V13.9688C4.125 13.5117 4.47656 13.125 4.96875 13.125C5.42578 13.125 5.8125 13.5117 5.8125 13.9688V17.0273L10.8047 12L5.8125 7.00781V10.0312C5.8125 10.5234 5.42578 10.875 4.96875 10.875C4.47656 10.875 4.125 10.5234 4.125 10.0312V4.96875C4.125 4.86328 4.125 4.75781 4.16016 4.65234C4.26562 4.44141 4.40625 4.30078 4.61719 4.19531C4.72266 4.16016 4.82812 4.125 4.96875 4.125H10.0312C10.4883 4.125 10.875 4.51172 10.875 4.96875C10.875 5.46094 10.4883 5.8125 10.0312 5.8125H6.97266L12 10.8398L16.9922 5.8125H13.9688C13.4766 5.8125 13.125 5.46094 13.125 4.96875C13.125 4.51172 13.4766 4.125 13.9688 4.125H19.0312C19.1367 4.125 19.2422 4.16016 19.3477 4.19531C19.5586 4.30078 19.6992 4.44141 19.8047 4.65234C19.8398 4.75781 19.875 4.86328 19.875 4.96875V10.0312C19.875 10.5234 19.4883 10.875 19.0312 10.875C18.5391 10.875 18.1875 10.5234 18.1875 10.0312Z" fill="#212121"/>
</svg>
