<svg width="14" height="18" viewBox="0 0 14 18" fill="none" xmlns="http://www.w3.org/2000/svg">
<path d="M9.8125 6.76318C9.8125 8.34521 8.54688 9.57568 7 9.57568C5.41797 9.57568 4.1875 8.34521 4.1875 6.76318C4.1875 5.21631 5.41797 3.95068 7 3.95068C8.54688 3.95068 9.8125 5.21631 9.8125 6.76318ZM7 5.63818C6.36719 5.63818 5.875 6.16553 5.875 6.76318C5.875 7.396 6.36719 7.88818 7 7.88818C7.59766 7.88818 8.125 7.396 8.125 6.76318C8.125 6.16553 7.59766 5.63818 7 5.63818ZM13.75 6.76318C13.75 9.85693 9.63672 15.3062 7.80859 17.5913C7.38672 18.1187 6.57812 18.1187 6.15625 17.5913C4.32812 15.3062 0.25 9.85693 0.25 6.76318C0.25 3.03662 3.23828 0.0131836 7 0.0131836C10.7266 0.0131836 13.75 3.03662 13.75 6.76318ZM7 1.70068C4.1875 1.70068 1.9375 3.98584 1.9375 6.76318C1.9375 7.22021 2.07812 7.88818 2.46484 8.80225C2.81641 9.646 3.34375 10.6304 3.94141 11.6147C4.96094 13.2319 6.12109 14.7788 7 15.9038C7.84375 14.7788 9.00391 13.2319 10.0234 11.6147C10.6211 10.6304 11.1484 9.646 11.5 8.80225C11.8867 7.88818 12.0625 7.22021 12.0625 6.76318C12.0625 3.98584 9.77734 1.70068 7 1.70068Z" fill="white"/>
</svg>
